<svg id="Capa_1" enable-background="new 0 0 512 512" height="512" viewBox="0 0 512 512" width="512" xmlns="http://www.w3.org/2000/svg"><g><path d="m448.248 455.943 6.231 13.723c5.039-2.288 9.922-5.028 14.511-8.144l-8.466-12.469c-3.883 2.637-8.014 4.955-12.276 6.89z"/><path d="m448.327 288.615c14.338-33.049 21.889-68.159 22.435-104.503l.001-.111c.016-48.132-25.323-92.696-66.423-117.375v-33.545h-45.287v90.497c-1.084 29.803-7.973 58.678-20.035 85.24l-128.42-128.422c-50.255 46.856-71.658 117.711-54.895 184.268-7.396 2.615-14.297 6.49-20.456 11.518v-85.09h-15.072v38.838c-9.989-10.333-24.091-16.796-39.71-16.796h-35.734v35.145c0 5.846.972 11.638 2.847 17.134-29.339 10.586-47.873 36.68-47.575 67.563 0 3.603.754 9.378 2.373 18.175l14.822-2.727c-1.848-10.043-2.123-13.989-2.124-15.52-.299-31.017 21.92-48.721 41.039-54.457 26.39-7.625 53.777.656 70.592 32.406 16.803-31.758 44.262-40.035 70.592-32.406 19.118 5.736 41.337 23.439 41.038 54.529 0 10.53-11.108 58.306-18.575 87.85-5.298 29.175-36.774 49.076-65.398 41.299 0 .001-27.658-6.863-27.658-6.863l-27.658 6.863c-28.625 7.775-60.1-12.125-65.397-41.3-.079-.314-8.009-31.74-13.478-57.529l-14.744 3.126c5.336 25.167 12.973 55.569 13.572 57.95 7.025 37.123 47.212 62.283 83.676 52.381 0 .001 24.028-5.962 24.028-5.962 10.753 2.378 29.846 8.514 40.723 8.018 20.605.215 41.74-10.282 54.258-26.777 36.049-3.179 71.552-13.621 103.433-30.423 15.593 33.499 49.571 56.78 88.89 56.78 7.84 0 15.646-.93 23.2-2.765l-3.556-14.646c-6.392 1.552-13.001 2.339-19.645 2.339-45.722 0-82.919-37.197-82.919-82.919s37.197-82.919 82.919-82.919 82.919 37.197 82.919 82.919c0 22.284-8.715 43.196-24.54 58.885l10.611 10.703c18.705-18.54 29.004-43.254 29.004-69.588 0-41.964-26.517-77.845-63.673-91.783zm-386.082-27.001c-1.595-4.25-2.443-8.766-2.443-13.336v-20.073h20.662c21.896 0 39.71 17.372 39.71 38.724v10.959c-15.576-13.735-36.39-19.701-57.929-16.274zm311.88-213.462h15.144v15.281h-15.144zm-.005 75.83.005-45.478h20.692c37.597 21.725 60.87 61.943 60.875 105.437-.533 34.976-7.926 68.738-21.968 100.459-3.867-.793-7.817-1.354-11.833-1.675v-15.721c0-22.664-16.889-41.447-38.741-44.452 12.554-29.843 19.742-62.55 20.845-95.304l-15.063-.507c-1.109 32.927-8.72 65.793-22.026 95.38h-17.501c14.964-30.287 23.481-63.634 24.715-98.139zm2.887 113.211c16.438 0 29.812 13.374 29.812 29.812v15.403h-15.403c-16.438 0-29.811-13.374-29.811-29.812v-15.403zm-123.995 87.484c18.426-10.577 35.429-23.598 50.596-38.765 17.336-17.336 31.737-36.959 42.924-58.179v30.385c-7.238 10.739-15.014 20.937-23.866 30.339-15.771 16.753-33.215 31.157-51.847 42.813-7.092 4.436-13.275 7.796-18.202 10.255 1.009-6.87.971-10.73.395-16.848zm-82.639-63.464c-14.166-56.546 1.06-116.53 40.34-159.387l11.258 11.258c-18.835 20.707-31.771 45.886-37.539 73.288-5.229 24.842-4.385 50.408 2.341 74.68-5.562-.559-11.055-.503-16.4.161zm33.268 3.442c-16.46-48.683-5.212-102.818 29.004-140.897l99.293 99.293c-10.303 18.997-23.373 36.591-38.987 52.205-13.082 13.082-27.617 24.454-43.301 33.91-7.021-20.758-23.498-37.115-46.009-44.511zm112.378 115.743c0 9.351 1.319 18.399 3.776 26.971-27.46 14.744-57.838 24.484-88.907 28.525 1.484-3.695 2.678-7.539 3.522-11.523 1.452-5.751 9.855-39.253 14.986-64.76 5.531-2.314 15.971-7.152 29.416-15.562 19.726-12.34 38.173-27.567 54.828-45.259 6.865-7.291 13.314-15.037 19.294-23.121 4.284 7.118 10.488 12.947 17.887 16.786-32.433 15.992-54.802 49.402-54.802 87.943z"/><path d="m360.004 338.353 11.906 9.241c2.696-3.474 5.824-6.601 9.295-9.296l-9.24-11.906c-4.468 3.468-8.492 7.492-11.961 11.961z"/><path d="m392.572 331.507c3.797-1.705 8.033-2.966 12.592-3.75l-2.552-14.854c-5.806.997-11.26 2.631-16.212 4.854z"/><path d="m240.362 174.104h15.071v15.071h-15.071z" transform="matrix(.707 -.707 .707 .707 -55.831 228.491)"/><path d="m282.991 216.732h15.072v15.071h-15.072z" transform="matrix(.707 -.707 .707 .707 -73.488 271.12)"/><path d="m240.434 259.289h15.072v15.071h-15.072z" transform="matrix(.707 -.707 .707 .707 -116.045 253.492)"/><path d="m240.362 216.732h15.071v15.071h-15.071z" transform="matrix(.707 -.707 .707 .707 -85.974 240.977)"/><path d="m59.234 309.11-7.557-13.039c-5.221 3.026-9.862 7.207-13.422 12.09l12.18 8.878c2.335-3.204 5.377-5.946 8.799-7.929z"/><path d="m167.775 309.11-7.557-13.039c-5.221 3.026-9.862 7.207-13.422 12.09l12.18 8.878c2.335-3.204 5.378-5.946 8.799-7.929z"/></g></svg>