<svg id="Layer_1" height="512" viewBox="0 0 512 512" width="512" xmlns="http://www.w3.org/2000/svg" data-name="Layer 1"><path d="m496.843 180.361c-7.477-39.788-26.364-67.13-72.175-104.485-58.482-47.687-135.84-55.984-190.441-54.554-180.02 4.726-216.064 108.63-221.443 170.643-4.254 14.725-21.184 111.51 14.777 167.012 14.781 22.81 36.462 35.967 64.439 39.105a198.935 198.935 0 0 0 28.361.781c25.112-.619 40.27-.993 67.139 42.448a102.38 102.38 0 0 0 70.026 47.007 186.2 186.2 0 0 0 31.079 2.526c28.19 0 59-5.786 92-17.305 43.935-15.337 85.537-50.76 108.573-92.446 26.746-48.4 17.526-155.269 9.312-190.057q-.656-5.349-1.647-10.675zm-472.16 13.252c2.341-27.959 11.641-68.144 42.645-100.813 35.58-37.49 91.839-57.5 167.214-59.482 95.234-2.5 151.837 26.82 182.542 51.858 43.849 35.755 61 60.333 67.965 97.4a159.757 159.757 0 0 1 -19.941 111.287 165.316 165.316 0 0 1 -88.422 71.629c-44.214 15.152-83.632 19.96-117.156 14.287a90.375 90.375 0 0 1 -61.822-41.487c-26.981-43.622-56.526-48.918-79.058-48.918-3.864 0-7.525.155-10.929.3-5.6.239-10.433.445-14.032-.174-23.108-3.976-41.754-15.25-53.922-32.6-11.912-16.991-17.128-38.875-15.084-63.287zm454 181.677c-21.667 39.209-60.761 72.515-102.025 86.92q-14.663 5.118-28.673 8.66v-20.531a6.167 6.167 0 0 0 -5.814-6.249 6 6 0 0 0 -6.186 6v23.557q-9.846 2.056-19.331 3.3v-48.88a6.167 6.167 0 0 0 -5.815-6.249 6 6 0 0 0 -6.185 6v50.382a184.4 184.4 0 0 1 -45.119-1.717 90.37 90.37 0 0 1 -61.827-41.483c-14.076-22.756-26.279-35.86-39.57-42.487-12.579-6.273-24.391-5.981-38.071-5.644a186.332 186.332 0 0 1 -26.727-.71c-1.574-.176-3.122-.393-4.65-.642l1.136-39.349a6 6 0 1 0 -11.995-.347l-1.064 36.855a72.087 72.087 0 0 1 -16.717-7.747v-64.923a6.166 6.166 0 0 0 -5.815-6.249 6 6 0 0 0 -6.185 6v55.61a77.87 77.87 0 0 1 -10.419-12.912c-20.193-31.166-22.131-77.896-19.712-112.555a93.738 93.738 0 0 0 12.023 23.892c14.043 20.029 35.383 33.01 61.712 37.54 4.863.837 10.292.606 16.578.338 21.672-.924 51.357-2.189 79.27 42.94a102.38 102.38 0 0 0 70.026 47.007 182.8 182.8 0 0 0 30.519 2.47c28.058 0 59.051-5.765 92.529-17.237a177.331 177.331 0 0 0 94.842-76.85 173.146 173.146 0 0 0 18.927-45.437c2.209 43.337-.822 93.861-15.667 120.727z"/><path d="m107.932 282.7c4.309.795 9.628.683 15.79.553 21.747-.457 54.615-1.151 79.725 37.942a94.657 94.657 0 0 0 62.6 41.7 168.151 168.151 0 0 0 30.082 2.607c23.915 0 50.11-4.526 78.24-13.543a149.153 149.153 0 0 0 82.831-65.185 143.767 143.767 0 0 0 17.222-103.374c-7.2-34.533-24.262-58.439-65.218-91.353-28.835-23.172-81.504-50.647-168.61-49.839-69.707.632-123.324 18.092-159.362 51.88a140.868 140.868 0 0 0 -44.748 93.169c-3.39 49.343 24.655 86.808 71.448 95.443zm-59.476-94.62a128.876 128.876 0 0 1 40.984-85.238c33.771-31.667 84.66-48.031 151.26-48.635 83.571-.731 133.673 25.246 160.983 47.2 38.968 31.316 54.357 52.625 60.988 84.447a131.8 131.8 0 0 1 -15.771 94.764 137.155 137.155 0 0 1 -76.187 59.913c-38.553 12.36-73.043 15.911-102.513 10.557a82.618 82.618 0 0 1 -54.651-36.382c-25.58-39.826-58.8-43.564-81.976-43.564-2.863 0-5.576.057-8.1.11-5.5.116-10.256.216-13.361-.356-20.257-3.737-36.715-13.644-47.593-28.651-10.629-14.657-15.49-33.387-14.063-54.165z"/><path d="m323.979 292.373a56.524 56.524 0 0 0 30.931 9.332 54.988 54.988 0 0 0 9.732-.869 50.517 50.517 0 0 0 33.782-22.11c15.719-24.068 7.9-57.107-17.428-73.651a56.021 56.021 0 0 0 -40.662-8.463 50.331 50.331 0 0 0 -40.448 61.93 56.015 56.015 0 0 0 24.093 33.831zm-7.38-67.089a38.629 38.629 0 0 1 25.86-16.862 42.9 42.9 0 0 1 7.593-.677 44.569 44.569 0 0 1 24.382 7.377c19.789 12.925 26.044 38.514 13.943 57.043a38.63 38.63 0 0 1 -25.861 16.861 44.937 44.937 0 0 1 -50.962-33.285 38.632 38.632 0 0 1 5.046-30.457z"/><path d="m334.85 275.729a34.755 34.755 0 0 0 19.026 5.712 31.868 31.868 0 0 0 26.924-14.228c9.725-14.89 4.939-35.3-10.669-45.494a34.461 34.461 0 0 0 -25.013-5.2 31.312 31.312 0 0 0 -20.932 13.715c-9.731 14.893-4.945 35.301 10.664 45.495zm-.623-38.932a19.425 19.425 0 0 1 13.012-8.465 21.827 21.827 0 0 1 3.86-.344 22.789 22.789 0 0 1 12.465 3.777c10.069 6.576 13.291 19.534 7.184 28.886-6.107 9.352-19.268 11.609-29.336 5.033s-13.292-19.536-7.185-28.884z"/><path d="m101.753 121.972a5.974 5.974 0 0 0 4.1-1.623c22.654-21.239 55.262-34.611 96.92-39.749a6 6 0 0 0 -1.468-11.91c-44.236 5.452-79.111 19.886-103.657 42.9a6 6 0 0 0 4.105 10.377z"/><path d="m228.342 78.521h.255c4.017-.167 8.163-.272 12.323-.31a6 6 0 0 0 -.053-12h-.056c-4.29.039-8.568.147-12.715.32a6 6 0 0 0 .246 11.994z"/></svg>