<svg id="Capa_1" enable-background="new 0 0 512 512" height="512" viewBox="0 0 512 512" width="512" xmlns="http://www.w3.org/2000/svg"><g><path d="m455.415 286.881c0-17.75-14.44-32.189-32.189-32.189s-32.189 14.44-32.189 32.189 14.44 32.189 32.189 32.189 32.189-14.44 32.189-32.189zm-49.379 0c0-9.479 7.711-17.189 17.189-17.189s17.189 7.711 17.189 17.189-7.711 17.189-17.189 17.189-17.189-7.711-17.189-17.189z"/><path d="m440.19 481.734c20.782 0 37.69-16.908 37.69-37.691s-16.908-37.691-37.69-37.691c-20.783 0-37.691 16.908-37.691 37.691s16.908 37.691 37.691 37.691zm0-60.382c12.512 0 22.69 10.179 22.69 22.691s-10.179 22.691-22.69 22.691-22.691-10.179-22.691-22.691 10.18-22.691 22.691-22.691z"/><path d="m364.356 371.011c0 14.005 11.395 25.4 25.4 25.4s25.399-11.395 25.399-25.4-11.395-25.4-25.399-25.4c-14.005 0-25.4 11.394-25.4 25.4zm35.8 0c0 5.734-4.665 10.4-10.399 10.4s-10.4-4.666-10.4-10.4 4.666-10.4 10.4-10.4 10.399 4.665 10.399 10.4z"/><path d="m501.027 377.851c-15.734-4.808-26.307-19.097-26.307-35.558s10.572-30.75 26.306-35.558c6.563-2.004 10.974-7.984 10.974-14.879 0-17.553-6.833-34.051-19.238-46.456-12.406-12.406-28.901-19.239-46.446-19.239h-49.582v-40.115c0-24.918-7.561-48.789-21.288-67.216l-37.504-50.346h.042c8.547 0 15.5-6.953 15.5-15.5v-35.145c0-8.547-6.953-15.5-15.5-15.5h-113.995c-8.547 0-15.5 6.953-15.5 15.5v35.144c0 8.547 6.953 15.5 15.5 15.5h.042l-37.504 50.346c-13.728 18.429-21.288 42.3-21.288 67.216v83.696h-53.223c-4.143 0-7.5 3.358-7.5 7.5s3.357 7.5 7.5 7.5h123.726v18.416h-220.742v-18.416h61.617c4.143 0 7.5-3.358 7.5-7.5s-3.357-7.5-7.5-7.5h-63.049c-7.481 0-13.568 6.087-13.568 13.568v21.279c0 6.279 4.293 11.56 10.094 13.101l14.896 120.923c0 .003.001.005.001.008l7.067 57.369c.973 7.794 7.624 13.671 15.473 13.671h158.543 135.231 97.294c4.143 0 7.5-3.358 7.5-7.5s-3.357-7.5-7.5-7.5h-97.294c-.32 0-.591-.271-.591-.591v-202.214c0-27.953 22.741-50.695 50.694-50.695h54.907c13.538 0 26.267 5.272 35.84 14.846 9.573 9.572 14.845 22.304 14.845 35.849 0 .247-.149.471-.355.534-22.085 6.748-36.924 26.802-36.924 49.903s14.839 43.156 36.926 49.904c.205.062.354.287.354.533v101.34c0 .326-.265.591-.591.591h-22.412c-4.143 0-7.5 3.358-7.5 7.5s3.357 7.5 7.5 7.5h22.412c8.597 0 15.591-6.994 15.591-15.591v-101.339c-.001-6.897-4.411-12.876-10.974-14.879zm-277.538-324.868v-35.144c0-.276.225-.5.5-.5h113.994c.275 0 .5.224.5.5v35.144c0 .276-.225.5-.5.5h-113.994c-.275 0-.5-.224-.5-.5zm-43.251 133.062c0-21.71 6.505-42.398 18.317-58.255l44.18-59.307h76.502l44.179 59.307c11.812 15.855 18.317 36.544 18.317 58.255v40.833c-5.35.793-10.49 2.237-15.341 4.243v-45.076c0-18.161-5.569-36.055-15.28-49.092l-14.531-19.506c-3.308-4.445-8.589-7.099-14.129-7.099h-82.932c-5.538 0-10.819 2.653-14.126 7.095l-14.533 19.51c-9.711 13.037-15.28 30.931-15.28 49.092v83.696h-15.342v-83.696zm145.506 308.616h-104.035l1.89-15.341h102.115v14.75c0 .199.022.393.03.591zm-111.225-64.313h-37.305c3.461-7.259 5.405-15.375 5.405-23.938 0-8.564-1.944-16.68-5.405-23.939h43.204zm-181.332-47.878h43.21c-3.461 7.259-5.405 15.376-5.405 23.939s1.943 16.679 5.404 23.938h-37.311zm52.805 23.94c0-22.504 18.309-40.813 40.812-40.813 22.505 0 40.813 18.309 40.813 40.813s-18.309 40.813-40.813 40.813c-22.503 0-40.812-18.309-40.812-40.813zm136.272-38.94h-55.528c-10.143-10.399-24.292-16.874-39.932-16.874s-29.788 6.474-39.931 16.874h-55.534l-6.075-49.313h203.075zm-175.321 126.674-6.011-48.796h45.94c10.143 10.4 24.292 16.875 39.933 16.875s29.79-6.475 39.933-16.875h45.933l-6.012 48.805c-.036.294-.282.508-.586.508h-158.543c-.302 0-.55-.223-.587-.517zm278.771-202.289v172.464h-100.267l3.16-25.656c.002-.023.006-.045.008-.068l15.04-122.091c4.218-2.304 7.086-6.781 7.086-11.916v-21.279c0-7.481-6.087-13.568-13.568-13.568h-26.593v-83.696c0-15.001 4.486-29.629 12.31-40.131l14.535-19.512c.498-.669 1.262-1.054 2.095-1.054h82.933c.833 0 1.597.384 2.097 1.056l14.534 19.509c7.823 10.503 12.31 25.131 12.31 40.132v53.761c-15.602 12.023-25.68 30.876-25.68 52.049z"/></g></svg>