<svg id="Capa_1" enable-background="new 0 0 512 512" height="512" viewBox="0 0 512 512" width="512" xmlns="http://www.w3.org/2000/svg"><g><path d="m223.703 330.359h41.58c4.107 0 7.435-3.329 7.435-7.435s-3.328-7.435-7.435-7.435h-41.58c-4.106 0-7.435 3.329-7.435 7.435s3.329 7.435 7.435 7.435z"/><path d="m254.717 344.367h-20.446c-4.106 0-7.435 3.329-7.435 7.435s3.329 7.435 7.435 7.435h20.446c4.107 0 7.435-3.329 7.435-7.435s-3.329-7.435-7.435-7.435z"/><path d="m466.324 354.42 23.075-23.074c10.849-10.848 16.824-25.273 16.824-40.617 0-11.233-3.258-22.123-9.42-31.493-2.256-3.431-6.869-4.383-10.297-2.126-3.431 2.257-4.383 6.867-2.126 10.298 4.562 6.936 6.973 15.001 6.973 23.321 0 11.372-4.428 22.062-12.468 30.102l-25.424 25.423c-4.504-2.465-9.479-4.561-14.477-6.553l29.387-29.385c5.232-5.232 8.113-12.188 8.113-19.587 0-15.275-12.426-27.701-27.7-27.701h-22.928l.039-14.87h22.888c4.232 0 8.41.621 12.417 1.846 3.82 1.2 8.094-.974 9.283-4.936 1.201-3.927-1.009-8.084-4.936-9.284-5.416-1.656-11.057-2.496-16.763-2.496h-22.849l.023-8.606c.002-.733.198-1.427.554-1.952 3.867-5.718 4.259-13.055 1.023-19.148-2.651-4.993-7.356-8.432-12.764-9.514v-28.172c0-9.019-7.338-16.357-16.357-16.357h-19.796c-9.019 0-16.357 7.338-16.357 16.357v27.806h-10.623c-15.367-.605-22.432 20.927-9.697 29.545l9.886 7.274c5.76 4.238 9.199 11.037 9.199 18.188v70.143c0 9.457-5.817 18.017-14.475 21.3-9.145 3.468-17.359 7.859-24.508 12.967v-161.323c0-12.18-5.315-23.696-14.582-31.597l-15.199-12.957c-9.404-8.017-14.797-19.703-14.797-32.061v-55.683c3.699-2.146 6.199-6.141 6.199-10.717v-18.498c-.001-16.698-13.587-30.283-30.284-30.283h-20.174c-16.698 0-30.282 13.585-30.282 30.283v18.499c0 4.576 2.499 8.57 6.198 10.716v55.683c0 12.358-5.393 24.044-14.797 32.061l-15.199 12.958c-9.268 7.902-14.583 19.418-14.583 31.597v13.465c0 4.106 3.329 7.435 7.435 7.435s7.435-3.329 7.435-7.435v-13.465c0-7.817 3.412-15.209 9.36-20.281l15.199-12.958c12.723-10.847 20.02-26.657 20.02-43.377v-5.676h38.602v5.676c0 16.72 7.297 32.53 20.02 43.377l15.199 12.957c5.948 5.071 9.359 12.463 9.359 20.281v106.584h-16.348c-1.987 0-3.856-.742-5.126-2.035-10.973-11.171-26.429-17.578-42.406-17.578s-31.433 6.407-42.405 17.578c-1.27 1.293-3.139 2.035-5.127 2.035h-16.348v-58.693c0-4.106-3.329-7.435-7.435-7.435s-7.435 3.329-7.435 7.435v203.366c-2.033.682-4.067 1.541-6.084 2.563 1.578-9.529 2.447-20.463 2.447-31.929 0-6.883-.67-67.243-23.885-67.243-12.796 0-18.741 18.34-21.501 35.954-9.639-14.659-23.307-30.285-35.268-24.789-7.525 3.457-10.044 13.124-7.489 28.731 1.998 12.2 6.92 27.238 13.86 42.343 2.26 4.919 4.678 9.705 7.185 14.251-6.637-.65-13.641-.996-20.79-.996-6.883 0-67.243.67-67.243 23.885 0 23.214 60.36 23.885 67.243 23.885 1.63 0 3.259-.027 4.884-.062 4.274 12.962 19.95 22.321 39.173 22.321 8.353 0 16.034-1.771 22.404-4.833 4.344 3.271 9.695 4.867 15.469 4.867 6.579 0 13.699-2.074 20.482-6.064 4.695 3.542 10.381 5.459 16.373 5.459h102.977c15.032 0 27.261-12.229 27.261-27.261v-21.016c2.34 1.676 4.767 3.264 7.28 4.754-2.203 4.272-3.318 9.095-3.236 14.027 0 16.264 13.232 29.496 29.496 29.496h75.418c16.474.019 29.82-13.615 29.496-30.077 0-4.736-1.116-9.297-3.21-13.396 24.081-14.166 38.591-35.884 38.591-59.79.003-20.558-10.859-39.685-29.551-53.713zm-248.53-324.137c0-8.499 6.914-15.413 15.412-15.413h20.174c8.499 0 15.413 6.914 15.413 15.413v16.02h-50.999zm6.198 64.352v-33.462h38.602v33.462zm175.908 128.872c0 .82-.667 1.487-1.487 1.487h-19.796c-.82 0-1.487-.667-1.487-1.487v-14.936h22.77zm-25.212 15.86c1.261.313 2.573.497 3.93.497h19.796c5.093 0 9.648-2.341 12.65-6.003l-.14 53.346h-35.027v-38.499c-.001-3.18-.424-6.315-1.209-9.341zm74.096 38.531c7.075 0 12.83 5.756 12.83 12.831 0 3.428-1.334 6.65-3.757 9.073l-29.62 29.619c-1.626-3.183-2.537-6.769-2.527-10.501l.108-41.021h22.966zm-70.166-113.489h19.796c.82 0 1.487.667 1.487 1.487v27.806h-22.77v-27.806c0-.82.667-1.487 1.487-1.487zm-17.979 54.134-9.885-7.274c-.239-.175-.872-.641-.534-1.669.337-1.028 1.123-1.028 1.419-1.028h10.623v11.242c-.53-.437-1.069-.863-1.623-1.271zm-53.466 249.362h-11.305c-5.424 0-10.459-2.384-13.816-6.542-9.511-11.782-23.638-18.539-38.759-18.539s-29.248 6.757-38.758 18.539c-1.016 1.259-2.196 2.359-3.499 3.282-.258-6.408-2.523-12.237-6.931-16.645-3.955-3.955-9.056-6.181-14.692-6.784v-69.952h16.348c1.988 0 3.856.742 5.127 2.035 10.972 11.171 26.428 17.579 42.405 17.579 15.976 0 31.432-6.407 42.406-17.579 1.27-1.293 3.139-2.035 5.126-2.035h12.527c-8.156 11.052-12.646 23.663-12.646 36.868 0 15.066 5.746 29.395 16.467 41.635zm-111.412-154.655c5.952 0 11.688-2.364 15.735-6.485 8.315-8.465 19.607-13.128 31.796-13.128s23.482 4.662 31.796 13.127c4.048 4.122 9.783 6.486 15.735 6.486h16.348v43.143h-16.348c-5.952 0-11.687 2.364-15.734 6.485-8.316 8.466-19.609 13.129-31.797 13.129-12.189 0-23.481-4.662-31.796-13.128-4.048-4.122-9.784-6.485-15.735-6.485h-16.348v-43.144zm-58.739 48.99c3.59 4.962 9.015 22.68 9.015 51.447 0 19.655-2.659 35.265-5.848 44.482-2.261-1.139-4.691-2.116-7.27-2.901-3.131-10.619-4.912-25.607-4.912-41.581 0-28.767 5.425-46.485 9.015-51.447zm-50.175 9.727c4.766 2.705 15.304 14.148 26.385 36.155-.082 2.664-.095 4.62-.095 5.564 0 13.732 1.261 26.946 3.537 37.806-5.728-7.948-11.519-18.094-16.538-29.018-12.008-26.134-14.477-44.496-13.289-50.507zm-65.275 93.856c4.962-3.59 22.68-9.015 51.447-9.015 7.424 0 14.657.389 21.393 1.131-7.958 3.889-13.823 9.814-16.327 16.834-1.683.04-3.374.065-5.066.065-28.767-.001-46.484-5.426-51.447-9.015zm70.04 16.653c0-6.915 10.458-14.62 25.465-14.62s25.465 7.705 25.465 14.62c0 6.916-10.458 14.621-25.465 14.621s-25.465-7.706-25.465-14.621zm60.836 14.378c3.168-4.231 4.963-9.122 4.963-14.378 0-4.995-1.626-9.659-4.505-13.742.741-.875 1.518-1.73 2.34-2.551 10.612-10.61 23.455-12.557 28.345-7.668 4.89 4.89 2.943 17.733-7.668 28.345-8.018 8.016-17.303 11.079-23.475 9.994zm142.333-.329h-102.977c-1.358 0-2.677-.227-3.928-.644 4.024-4.318 7.15-9.002 9.352-13.759 7.452-1.503 14.116-5.521 18.877-11.419 6.674-8.267 16.583-13.009 27.187-13.009 10.605 0 20.514 4.742 27.188 13.009 6.193 7.673 15.446 12.073 25.386 12.073h11.305v1.358c.002 6.832-5.557 12.391-12.39 12.391zm131.584-31.521c-3.946 1.135-6.225 5.254-5.09 9.2 1.136 3.947 5.259 6.224 9.201 5.09 4.704-1.353 9.204-2.945 13.494-4.74 5.153 9.483-1.911 22.232-12.969 21.971h-75.418c-11.066.262-18.126-12.502-12.962-21.984 15.275 6.44 32.626 9.888 50.672 9.888 4.107 0 7.435-3.329 7.435-7.435s-3.328-7.435-7.435-7.435c-48.367 0-87.717-27.556-87.717-61.427 0-22.536 17.721-43.257 46.248-54.076 14.398-5.461 24.073-19.608 24.073-35.204v-16.774h34.988l-.044 16.802c-.041 15.587 9.598 29.732 23.985 35.2 28.486 10.825 46.183 31.536 46.183 54.051-.001 25.001-21.45 47.324-54.644 56.873z"/><path d="m393.292 375.612c-30.262 0-53.081 13.138-53.081 30.56s22.82 30.56 53.081 30.56c30.262 0 53.081-13.138 53.081-30.56s-22.819-30.56-53.081-30.56zm0 46.25c-23.326 0-38.211-9.293-38.211-15.69s14.885-15.69 38.211-15.69 38.212 9.293 38.212 15.69-14.886 15.69-38.212 15.69z"/></g></svg>