<svg id="Capa_1" enable-background="new 0 0 511.974 511.974" height="512" viewBox="0 0 511.974 511.974" width="512" xmlns="http://www.w3.org/2000/svg"><g><path d="m438.227 463.097c-4.052-6.114-5.873-13.5-5.13-20.796l4.946-48.562c2.225-21.833 3.14-44.879 2.798-70.455-.055-4.108-3.401-7.4-7.497-7.4-.034 0-.068 0-.103 0-4.142.056-7.454 3.458-7.398 7.6.334 24.996-.557 47.479-2.722 68.734l-4.946 48.562c-1.128 9.898 1.832 22.453 8.046 31.354 4.191 6.325 3.339 14.81-2.025 20.175-5.367 5.366-13.85 6.218-20.176 2.026-9.574-6.345-21.109-8.941-32.478-7.319l-22.229 3.175c-61.928 8.846-124.726 8.846-186.652 0l-22.229-3.175c-11.371-1.625-22.904.975-32.479 7.319-6.326 4.192-14.81 3.339-20.175-2.026s-6.217-13.85-2.026-20.174c5.616-7.952 9.268-20.47 8.047-31.354l-3.016-29.605c-.42-4.121-4.099-7.117-8.222-6.701-4.121.42-7.121 4.101-6.701 8.222l3.016 29.605c.691 6.291-1.146 15.273-5.628 21.548-8.116 12.248-6.466 28.678 3.923 39.067 5.974 5.974 13.944 9.058 21.969 9.058 5.932 0 11.893-1.686 17.098-5.135 6.506-4.311 14.347-6.079 22.072-4.974l22.229 3.175c63.334 9.048 127.561 9.048 190.895 0l22.229-3.175c7.725-1.106 15.563.662 22.071 4.974 12.244 8.115 28.675 6.466 39.067-3.923 10.389-10.39 12.038-26.819 3.923-39.068z"/><path d="m430.157 93.501h-8.375c2.043-4.789 3.283-9.954 3.821-14.563 1.449-12.409-1.264-23.071-7.443-29.251-8.497-8.496-20.213-10.044-31.948-4.854-2.174-10.46-8.73-18.246-18.677-21.477-6.168-2.004-12.413-1.851-18.184.361-.876-1.141-1.84-2.237-2.888-3.285-11.808-11.809-28.994-12.139-45.315-1.43-4.348-11.227-13.101-18.13-24.509-18.928-11.631-.81-21.318 4.95-27.144 15.747-11.697-11.761-26.054-14.727-38.998-7.551-4.102 2.273-7.461 5.258-9.987 8.836-6.238-6.669-14.479-9.679-23.615-8.396-7.922 1.113-14.404 5.257-18.703 11.745-6.384-3.131-13.917-3.667-21.415-1.487-11.367 3.537-22.537 12.911-26.886 25.369-13.387-1.606-24.413 3.684-29.821 14.79-4.289 8.806-3.409 23.157.909 34.396-11.691.442-21.067 10.086-21.067 21.883v53.191c0 11.359 8.691 20.723 19.772 21.799-.506 6.08-1.012 12.159-1.53 18.243-4.716 55.401-9.592 112.688-5.599 169.121.28 3.952 3.572 6.971 7.474 6.971.178 0 .357-.006.537-.019 4.132-.292 7.244-3.879 6.952-8.011-3.911-55.266.915-111.961 5.582-166.79.551-6.473 1.09-12.942 1.627-19.41h23.259c4.142 0 7.5-3.358 7.5-7.5s-3.358-7.5-7.5-7.5h-36.17c-3.807 0-6.904-3.097-6.904-6.904v-53.191c0-3.807 3.097-6.904 6.904-6.904h348.34c3.807 0 6.904 3.097 6.904 6.904v53.191c0 3.807-3.098 6.904-6.904 6.904h-277.17c-4.142 0-7.5 3.358-7.5 7.5s3.358 7.5 7.5 7.5h264.266c.541 6.514 1.084 13.029 1.639 19.548 2.198 25.824 4.471 52.527 5.8 78.734.203 4.007 3.517 7.12 7.484 7.12.128 0 .257-.003.386-.01 4.137-.209 7.32-3.733 7.11-7.87-1.342-26.463-3.626-53.296-5.835-79.247-.522-6.13-1.031-12.255-1.541-18.381 11.077-1.079 19.764-10.442 19.764-21.798v-53.191c.002-12.079-9.824-21.905-21.902-21.905zm-22.604-33.207c2.745 2.746 4.012 9.539 3.151 16.904-.894 7.659-3.674 13.573-6.362 16.303h-18.973c1.514-6.837.237-13.636-3.865-19.673 1.979-3.67 3.469-7.522 4.411-11.419 4.756-3.597 14.496-9.26 21.638-2.115zm-72.638 33.207c1.927-3.456 5.242-6.95 9.679-10.057 5.276-3.694 10.672-5.782 15.193-5.879 4.016-.092 7.016 1.394 9.209 4.526 2.403 3.432 2.593 7.26.58 11.41zm-155.933-69.937c5.888-.828 10.598 2.132 13.992 8.799 1.822 3.579 5.581 5.609 9.563 5.16 3.941-.439 7.118-3.206 8.093-7.047 1.021-4.018 3.355-6.99 7.138-9.086 11.823-6.553 21.88 5.152 25.654 10.49 2.13 3.012 5.708 4.495 9.334 3.879 3.636-.62 6.524-3.215 7.538-6.773 1.913-6.716 6.127-14.586 15.298-13.946 8.79.614 11.944 8.423 13.044 14.867.574 3.366 2.932 6.175 6.15 7.331 3.217 1.153 6.811.485 9.387-1.743 4.899-4.53 22.094-16.058 32.816-3.213-3.945 4.086-7.43 9.277-10.248 15.322-1.75 3.754-.125 8.216 3.629 9.966 2.689 1.421 7.648.588 9.967-3.628 2.881-6.18 6.657-11.168 10.632-14.047 2.688-2.092 7.017-3.717 11.931-2.272 9.476 3.079 9.607 13.463 8.814 19.481-.418 2.386-1.164 4.784-2.195 7.124-3.092-1.165-6.468-1.741-10.052-1.659-7.565.162-15.683 3.132-23.476 8.588-9.077 6.356-15.027 14.216-17.132 22.344h-21.233c2.745-12.233-.951-23.159-10.602-29.889-8.457-5.741-19.901-6.649-29.955-.68-8.215-16.14-22.283-23.51-36.735-18.535-5.484 1.888-9.882 5.131-13.073 9.638-2.394 3.381-1.593 8.062 1.787 10.455 3.381 2.393 8.061 1.593 10.455-1.787 1.358-1.918 3.227-3.266 5.714-4.123 10.961-3.773 17.512 8.538 19.956 14.434-1.273 1.486-2.503 3.069-3.681 4.758-3.594 5.155-6.159 10.496-7.619 15.73h-51.605c1.878-2.338 3.434-4.783 4.625-7.311 4.075-8.647 3.661-17.832-1.165-25.863-4.148-6.904-10.584-11.32-18.374-12.72-.36-3.731-.22-9.036 1.052-13.667 2.56-9.25 8.593-10.098 10.576-10.377zm70.784 69.937c1.032-2.369 2.38-4.784 4.03-7.151 3.986-5.717 8.707-9.852 13.293-11.644 4.146-1.621 7.862-1.226 11.354 1.211 6.541 4.56 5.628 11.978 3.586 17.584zm-115.577 0c-.385-.48-.75-.994-1.086-1.552-2.258-3.758-2.406-7.599-.453-11.744 2.148-4.558 6.692-9.088 12.796-12.755s12.232-5.552 17.27-5.31c4.577.221 7.898 2.155 10.156 5.913s2.406 7.599.453 11.744c-2.148 4.558-6.692 9.088-12.796 12.755-.548.329-1.101.645-1.656.949zm6.778-60.13c2.054-.669 7.49-1.354 11.91 1.294-.515 2.966-.943 8.336-.514 13.679-5.269 1.4-12.077 4.239-18.18 8.542-2.967-3.28-6.319-5.984-9.97-8.046.238-.673.562-1.453 1.04-2.369 3.189-6.109 9.357-11.251 15.714-13.1zm-47.411 32.323c4.235-8.697 14.437-7.035 20.304-5.192 3.506 1.323 6.63 3.551 9.348 6.619-1.658 2.149-3.042 4.386-4.128 6.69-3.062 6.499-3.588 13.301-1.613 19.689h-19.835c-4.602-6.41-7.096-21.604-4.076-27.806z"/><path d="m365.987 313.214c0-60.654-49.346-110-110-110s-110 49.346-110 110c0 30.839 13.176 60.163 35.405 80.787h-20.405c-2.673 0-5.145 1.423-6.487 3.735s-1.352 5.165-.025 7.486l7.874 13.779-7.874 13.779c-1.327 2.321-1.317 5.173.025 7.486 1.342 2.312 3.813 3.735 6.487 3.735h190c2.674 0 5.145-1.423 6.487-3.735s1.351-5.165.024-7.486l-7.874-13.779 7.874-13.779c1.326-2.321 1.317-5.173-.024-7.486-1.343-2.312-3.813-3.735-6.487-3.735h-20.404c22.231-20.622 35.404-49.939 35.404-80.787zm-31.512 109.508 3.588 6.279h-164.152l3.588-6.279c1.318-2.306 1.318-5.137 0-7.442l-3.588-6.279h164.152l-3.588 6.279c-1.317 2.306-1.317 5.137 0 7.442zm-128.475-28.721c-27.806-17.254-45.013-48.034-45.013-80.787 0-52.383 42.617-95 95-95s95 42.617 95 95c0 32.764-17.203 63.532-45.014 80.787z"/><path d="m312.606 289.024c-10.032-10.282-25.349-13.952-39.951-9.908-5.741-21.708-21.137-35.662-41.264-35.396-26.159.111-43.723 23.376-43.723 57.971 0 30.169 13.387 51.987 34.452 56.911 1.927 4.479 4.742 8.661 8.495 12.414 7.732 7.732 17.348 11.672 27.814 11.671 6.651 0 13.646-1.592 20.717-4.812 3.77-1.717 5.434-6.165 3.717-9.934s-6.163-5.437-9.934-3.717c-6.305 2.872-14.615 5.007-22.647 2.087 3.016-2.043 6.188-4.463 9.643-7.346 12.252-10.223 15.627-18.688 18.604-26.157 2.657-6.664 4.952-12.419 14.354-20.201 4.845-4.01 8.799-6.866 12.433-8.944 10.618 15.8-3.055 34.958-7.849 40.825-2.621 3.208-2.146 7.933 1.062 10.553 3.208 2.623 7.933 2.145 10.553-1.062 18.994-23.246 20.344-48.136 3.524-64.955zm-53.956-4.046c-5.504 3.123-13.39 8.94-19.499 15.45-.239-.564-.476-1.117-.709-1.659-2.833-6.591-5.28-12.283-4.134-24.434.591-6.267 1.369-11.085 2.47-15.126 14.015 2.746 19.647 16.465 21.872 25.769zm-55.981 16.712c0-16.113 5.001-34.422 18.329-40.714-.669 3.513-1.198 7.43-1.625 11.95-1.506 15.964 2.103 24.359 5.287 31.767 1.412 3.284 2.657 6.205 3.474 9.739-5.644 9.043-8.703 18.258-9.078 27.004-11.907-6.97-16.387-24.081-16.387-39.746zm80.65-.639c-12.353 10.223-15.737 18.711-18.723 26.201-2.654 6.657-4.947 12.406-14.282 20.195-4.782 3.991-8.72 6.825-12.411 8.922-9.837-14.736.454-33.98 13.265-46.792 11.393-11.392 27.874-20.803 41.749-15.828-2.956 2.011-6.1 4.407-9.598 7.302z"/></g></svg>