<svg id="Capa_1" enable-background="new 0 0 512 512" height="512" viewBox="0 0 512 512" width="512" xmlns="http://www.w3.org/2000/svg"><g><g><path d="m323.617 168.432c6.757 0 13.509-2.507 18.92-7.533 3.035-2.819 3.21-7.564.391-10.599-2.818-3.035-7.564-3.21-10.599-.391-5.828 5.413-13.331 3.984-17.729-.226-2.993-2.864-7.741-2.76-10.604.234-2.864 2.993-2.759 7.74.234 10.604 5.507 5.27 12.449 7.911 19.387 7.911z"/><path d="m512 311.625v-90.211c0-14.435-11.744-26.179-26.179-26.179h-14.042l30.659-99.536c8.025-26.003-4.363-40.899-18.632-46.169-16.829-6.216-40.086-.757-47.883 17.271l-26.28 60.716c-11.557-20.348-34.587-34.309-61.025-36.732-24.274-2.228-46.212 6.332-58.754 22.902-2.472 2.801-6.316 6.979-14.651 9.411-5.4-22.596-14.292-46.453-23.999-63.181-2.08-3.582-6.668-4.8-10.251-2.722-3.583 2.079-4.801 6.669-2.722 10.251 8.691 14.975 16.88 36.865 21.99 57.589-6.937.059-15.496-.756-26.162-2.915-11.588-2.336-23.64-1.214-35.23 2.262-10.311-9.973-21.604-16.896-31.937-18.893-4.068-.786-8 1.874-8.787 5.94-.786 4.067 1.874 8.001 5.94 8.787 5.527 1.068 12.329 4.623 19.282 10.303-12.948 6.379-24.653 15.348-33.603 25.122-1.588-1.962-3.272-3.953-5.065-5.978-1.424-1.608-3.468-2.529-5.616-2.529s-4.192.921-5.616 2.529c-36.455 41.192-29.423 68.486-19.692 106.263 1.274 4.946 2.576 10.006 3.856 15.339-1.585-1.294-3.157-2.583-4.709-3.857-30.995-25.452-57.764-47.432-107.805-30.405-1.983.675-3.594 2.149-4.442 4.065-.848 1.917-.856 4.1-.021 6.022 18.293 42.136 42.948 52.668 73.471 58.943-30.517 6.278-55.17 16.818-73.47 58.944-.835 1.922-.828 4.107.021 6.023.848 1.917 2.46 3.391 4.444 4.066 12.901 4.385 23.953 6.288 33.781 6.288 26.454 0 44.019-13.793 64.759-30.081 2.438-1.914 4.966-3.891 7.551-5.891 1.755-.017 3.571-.183 5.426-.498-.954 3.846-1.913 7.567-2.856 11.225-9.745 37.784-16.786 65.083 19.687 106.295 1.423 1.608 3.468 2.529 5.616 2.529s4.193-.921 5.617-2.53c15.544-17.564 23.177-32.599 26.07-46.996 16.23 8.287 34.176 12.634 52.534 12.634h30.441c-.036.73-.064 1.461-.061 2.199.017 4.13 3.37 7.47 7.5 7.47h75.732c4.142 0 7.5-3.358 7.5-7.5s-3.358-7.5-7.5-7.5h-67.098c.003-.01.005-.02.007-.029 2.412-7.629 8.223-13.281 13.294-16.969 15.8-11.491 41.793-16.528 57.933-11.231 34.318 11.304 49.625 1.776 56.163-2.292.304-.189.585-.365.84-.519 28.055-16.872 42.454-9.45 56.594 7.996 4.921 6.063 11.021 9.61 16.402 12.738 7.144 4.153 10.177 6.124 10.213 10.307h-110.785c-4.142 0-7.5 3.358-7.5 7.5s3.358 7.5 7.5 7.5h116.964c3.299 0 6.21-2.156 7.173-5.311 6.129-20.082-6.679-27.528-16.03-32.964-1.353-.786-2.716-1.586-4.053-2.421 23.938-22.057 37.496-52.679 37.496-85.39zm-62.312-238.868c4.166-9.633 18.965-12.833 28.92-9.157 10.441 3.856 13.813 13.685 9.496 27.674 0 .001-.001.003-.001.004l-32.02 103.956h-59.408zm-310.638 93.525c24.886 31.297 19.689 51.442 10.726 86.174-.67 2.597-1.348 5.229-2.027 7.912-2.641-1.695-5.608-2.583-8.782-2.583-3.08 0-5.971.962-8.573 2.721-.728-2.888-1.444-5.67-2.126-8.32-8.909-34.585-14.076-54.643 10.782-85.904zm-44.689 173.195c-25.823 20.28-42.128 33.08-76.412 23.846 17.921-35.494 40.522-39.569 76.366-45.752-3.333 6.626-3.846 13.354-.864 18.836.48.886 1.049 1.703 1.677 2.469-.255.2-.514.403-.767.601zm.518-44.885c-36.17-6.235-58.908-10.152-76.914-45.806 36.956-9.565 57.574 7.363 85.405 30.216 4.53 3.72 9.201 7.545 14.108 11.396-.045.984-.074 1.977-.074 2.987 0 1.039.023 2.065.068 3.075-1.085.509-2.156 1.067-3.218 1.652-6.762-1.335-13.173-2.451-19.375-3.52zm13.295 35.491c-.786-.21-1.375-.527-1.542-.835-1.059-1.946 2.261-10.331 13.204-17.049 2.582-1.58 5.276-2.847 8.007-3.766 3.44-1.157 5.558-4.611 5.029-8.202-.312-2.114-.469-4.418-.469-6.846 0-13.312 5.022-20.229 6.564-20.602.241 0 .69 0 1.519.96 4.208 4.876 5.655 19.203 4.578 26.481-.533 3.6 1.595 7.063 5.047 8.214 2.727.909 5.421 2.172 8.007 3.754 10.939 6.716 14.258 15.119 13.219 17.044-.172.315-.758.632-1.566.848-3.531.939-10.434-.162-17.886-4.737-2.855-1.759-5.397-3.769-7.556-5.975-1.411-1.442-3.343-2.254-5.36-2.254-.007 0-.014 0-.021 0-2.024.006-3.961.83-5.369 2.284-2.115 2.185-4.64 4.181-7.522 5.943-7.451 4.583-14.349 5.682-17.883 4.738zm75.449-12.539c35.944 6.202 58.58 10.231 76.528 45.778-34.318 9.239-50.618-3.568-76.438-23.859-.272-.214-.546-.43-.821-.646.008-.009.001-.024.006-.034.601-.743 1.152-1.531 1.619-2.386 2.968-5.493 2.443-12.227-.894-18.853zm-.455-22.956c-6.227 1.072-12.663 2.189-19.454 3.53-1.102-.607-2.213-1.186-3.34-1.71.046-1.772.025-3.714-.08-5.751 5.033-3.942 9.817-7.858 14.455-11.666 27.826-22.846 48.438-39.77 85.384-30.206-18.022 35.663-40.772 39.575-76.965 45.803zm-44.118 151.2c-24.876-31.28-19.7-51.339-10.778-85.931 1.755-6.807 3.564-13.818 5.315-21.541.103-.062 1.961-1.222 2.758-1.767.904-.617 1.782-1.256 2.633-1.915.841.651 1.707 1.283 2.597 1.895.798.548 2.798 1.796 2.97 1.9 1.763 7.774 3.627 15.014 5.295 21.495 8.901 34.563 14.064 54.608-10.79 85.864zm251.233-66.965c-.318.192-.661.404-1.029.634-5.157 3.21-15.888 9.889-43.55.777-20.856-6.845-51.568-1.104-71.441 13.351-7.758 5.643-13.4 12.218-16.803 19.459h-34.189c-18.039 0-35.625-4.818-51.117-13.958-.259-13.66-3.794-27.397-7.786-42.902-.946-3.673-1.907-7.41-2.863-11.273 1.855.307 3.671.469 5.424.478 2.574 1.992 5.09 3.96 7.516 5.868 20.74 16.299 38.298 30.101 64.772 30.1 9.83 0 20.891-1.904 33.796-6.288 1.985-.674 3.597-2.149 4.445-4.066.849-1.917.856-4.101.021-6.024-18.305-42.136-42.967-52.669-73.498-58.948 30.53-6.269 55.193-16.802 73.498-58.938.835-1.922.828-4.106-.02-6.022-.848-1.917-2.459-3.391-4.443-4.066-50.034-17.023-76.797 4.951-107.786 30.393-1.558 1.279-3.136 2.572-4.726 3.871 1.261-5.231 2.543-10.201 3.798-15.065 4.301-16.666 8.076-31.3 7.859-45.969h93.495c4.142 0 7.5-3.358 7.5-7.5s-3.358-7.5-7.5-7.5h-95.227c-1.928-8.67-5.594-17.588-11.687-27.159 9.088-10.706 22.049-20.413 36.017-26.303 5.961 6.96 11.564 15.408 16.042 25.122 1.265 2.745 3.979 4.362 6.816 4.362 1.05 0 2.118-.222 3.135-.691 3.762-1.734 5.406-6.189 3.671-9.951-3.888-8.434-8.804-16.424-14.329-23.59 7.124-1.38 14.243-1.564 21.002-.202 13.014 2.633 23.586 3.523 32.306 3.181.674 3.856 1.211 7.595 1.579 11.147.4 3.857 3.656 6.726 7.451 6.726.259 0 .521-.013.784-.041 4.12-.428 7.113-4.114 6.686-8.234-.39-3.759-.944-7.684-1.636-11.714 11.092-2.981 17.858-8.618 23.042-14.5.133-.151.26-.307.38-.468 9.364-12.527 26.4-18.957 45.561-17.198 22.279 2.042 42.15 14.438 50.619 31.568 1.243 2.524 2.731 4.92 4.445 7.162l-21.981 50.782h-80.75c-4.142 0-7.5 3.358-7.5 7.5s3.358 7.5 7.5 7.5h186.241c6.164 0 11.179 5.015 11.179 11.179v90.211c0 28.89-12.161 55.916-33.588 75.2-14.468-16.526-35.886-30.401-73.131-8.001z"/></g></g></svg>